<svg width="406" height="88" viewBox="0 0 406 88" fill="none" xmlns="http://www.w3.org/2000/svg">
<path d="M141.421 38H136.856L129.22 26.4401V38H124.655V19.2585H129.22L136.856 30.8718V19.2585H141.421V38ZM147.293 21.5545C146.492 21.5545 145.834 21.3231 145.318 20.8604C144.819 20.3798 144.57 19.7925 144.57 19.0983C144.57 18.3864 144.819 17.7991 145.318 17.3363C145.834 16.8558 146.492 16.6155 147.293 16.6155C148.076 16.6155 148.717 16.8558 149.215 17.3363C149.732 17.7991 149.99 18.3864 149.99 19.0983C149.99 19.7925 149.732 20.3798 149.215 20.8604C148.717 21.3231 148.076 21.5545 147.293 21.5545ZM149.563 23.1029V38H144.997V23.1029H149.563ZM158.798 22.8894C159.848 22.8894 160.764 23.1029 161.547 23.5301C162.348 23.9572 162.962 24.5179 163.39 25.212V23.1029H167.955V37.9733C167.955 39.3438 167.679 40.5807 167.127 41.6842C166.593 42.8055 165.766 43.6954 164.644 44.3539C163.541 45.0125 162.162 45.3417 160.506 45.3417C158.299 45.3417 156.511 44.8167 155.14 43.7666C153.77 42.7343 152.987 41.3283 152.791 39.5484H157.303C157.445 40.118 157.783 40.5629 158.317 40.8833C158.851 41.2215 159.51 41.3906 160.293 41.3906C161.236 41.3906 161.984 41.1147 162.535 40.5629C163.105 40.029 163.39 39.1658 163.39 37.9733V35.8642C162.945 36.5583 162.331 37.1279 161.547 37.5728C160.764 38 159.848 38.2136 158.798 38.2136C157.57 38.2136 156.457 37.9021 155.461 37.2792C154.464 36.6384 153.672 35.7396 153.084 34.5828C152.515 33.4081 152.23 32.0554 152.23 30.5248C152.23 28.9941 152.515 27.6504 153.084 26.4935C153.672 25.3366 154.464 24.4467 155.461 23.8238C156.457 23.2008 157.57 22.8894 158.798 22.8894ZM163.39 30.5515C163.39 29.4124 163.069 28.5136 162.428 27.855C161.806 27.1965 161.04 26.8672 160.133 26.8672C159.225 26.8672 158.451 27.1965 157.81 27.855C157.187 28.4958 156.875 29.3857 156.875 30.5248C156.875 31.6639 157.187 32.5716 157.81 33.2479C158.451 33.9064 159.225 34.2357 160.133 34.2357C161.04 34.2357 161.806 33.9064 162.428 33.2479C163.069 32.5894 163.39 31.6906 163.39 30.5515ZM170.617 30.5248C170.617 28.9941 170.902 27.6504 171.471 26.4935C172.058 25.3366 172.851 24.4467 173.847 23.8238C174.844 23.2008 175.956 22.8894 177.184 22.8894C178.234 22.8894 179.151 23.1029 179.934 23.5301C180.735 23.9572 181.349 24.5179 181.776 25.212V23.1029H186.342V38H181.776V35.8909C181.331 36.585 180.708 37.1457 179.907 37.5728C179.124 38 178.208 38.2136 177.158 38.2136C175.947 38.2136 174.844 37.9021 173.847 37.2792C172.851 36.6384 172.058 35.7396 171.471 34.5828C170.902 33.4081 170.617 32.0554 170.617 30.5248ZM181.776 30.5515C181.776 29.4124 181.456 28.5136 180.815 27.855C180.192 27.1965 179.427 26.8672 178.519 26.8672C177.612 26.8672 176.837 27.1965 176.197 27.855C175.574 28.4958 175.262 29.3857 175.262 30.5248C175.262 31.6639 175.574 32.5716 176.197 33.2479C176.837 33.9064 177.612 34.2357 178.519 34.2357C179.427 34.2357 180.192 33.9064 180.815 33.2479C181.456 32.5894 181.776 31.6906 181.776 30.5515ZM199.068 22.9428C200.777 22.9428 202.147 23.5123 203.18 24.6514C204.212 25.7727 204.728 27.3211 204.728 29.2967V38H200.19V29.9107C200.19 28.914 199.932 28.1398 199.415 27.5881C198.899 27.0363 198.205 26.7605 197.333 26.7605C196.461 26.7605 195.767 27.0363 195.251 27.5881C194.735 28.1398 194.476 28.914 194.476 29.9107V38H189.911V18.244H194.476V25.1052C194.939 24.4467 195.571 23.9217 196.372 23.5301C197.173 23.1385 198.072 22.9428 199.068 22.9428ZM212.733 25.212C213.16 24.5179 213.774 23.9572 214.575 23.5301C215.376 23.1029 216.292 22.8894 217.325 22.8894C218.553 22.8894 219.665 23.2008 220.662 23.8238C221.659 24.4467 222.442 25.3366 223.011 26.4935C223.599 27.6504 223.892 28.9941 223.892 30.5248C223.892 32.0554 223.599 33.4081 223.011 34.5828C222.442 35.7396 221.659 36.6384 220.662 37.2792C219.665 37.9021 218.553 38.2136 217.325 38.2136C216.275 38.2136 215.358 38.0089 214.575 37.5995C213.792 37.1724 213.178 36.6117 212.733 35.9176V38H208.168V18.244H212.733V25.212ZM219.247 30.5248C219.247 29.3857 218.927 28.4958 218.286 27.855C217.663 27.1965 216.889 26.8672 215.963 26.8672C215.055 26.8672 214.281 27.1965 213.64 27.855C213.018 28.5136 212.706 29.4124 212.706 30.5515C212.706 31.6906 213.018 32.5894 213.64 33.2479C214.281 33.9064 215.055 34.2357 215.963 34.2357C216.871 34.2357 217.645 33.9064 218.286 33.2479C218.927 32.5716 219.247 31.6639 219.247 30.5248ZM225.647 30.5248C225.647 28.9941 225.931 27.6504 226.501 26.4935C227.088 25.3366 227.88 24.4467 228.877 23.8238C229.874 23.2008 230.986 22.8894 232.214 22.8894C233.264 22.8894 234.181 23.1029 234.964 23.5301C235.765 23.9572 236.379 24.5179 236.806 25.212V23.1029H241.371V38H236.806V35.8909C236.361 36.585 235.738 37.1457 234.937 37.5728C234.154 38 233.237 38.2136 232.187 38.2136C230.977 38.2136 229.874 37.9021 228.877 37.2792C227.88 36.6384 227.088 35.7396 226.501 34.5828C225.931 33.4081 225.647 32.0554 225.647 30.5248ZM236.806 30.5515C236.806 29.4124 236.486 28.5136 235.845 27.855C235.222 27.1965 234.457 26.8672 233.549 26.8672C232.641 26.8672 231.867 27.1965 231.226 27.855C230.603 28.4958 230.292 29.3857 230.292 30.5248C230.292 31.6639 230.603 32.5716 231.226 33.2479C231.867 33.9064 232.641 34.2357 233.549 34.2357C234.457 34.2357 235.222 33.9064 235.845 33.2479C236.486 32.5894 236.806 31.6906 236.806 30.5515ZM254.018 22.9428C255.762 22.9428 257.15 23.5123 258.183 24.6514C259.233 25.7727 259.758 27.3211 259.758 29.2967V38H255.219V29.9107C255.219 28.914 254.961 28.1398 254.445 27.5881C253.929 27.0363 253.235 26.7605 252.363 26.7605C251.491 26.7605 250.797 27.0363 250.28 27.5881C249.764 28.1398 249.506 28.914 249.506 29.9107V38H244.941V23.1029H249.506V25.0785C249.969 24.42 250.592 23.9039 251.375 23.5301C252.158 23.1385 253.039 22.9428 254.018 22.9428ZM278.679 38L274.782 30.9252H273.687V38H269.122V19.2585H276.784C278.261 19.2585 279.516 19.5166 280.548 20.0328C281.598 20.5489 282.381 21.2608 282.898 22.1685C283.414 23.0584 283.672 24.0551 283.672 25.1586C283.672 26.4045 283.316 27.5169 282.604 28.4958C281.91 29.4747 280.877 30.1688 279.507 30.5782L283.832 38H278.679ZM273.687 27.6949H276.517C277.353 27.6949 277.976 27.4902 278.386 27.0808C278.813 26.6715 279.026 26.093 279.026 25.3455C279.026 24.6336 278.813 24.0729 278.386 23.6636C277.976 23.2542 277.353 23.0495 276.517 23.0495H273.687V27.6949ZM285.897 30.5248C285.897 28.9941 286.182 27.6504 286.751 26.4935C287.338 25.3366 288.13 24.4467 289.127 23.8238C290.124 23.2008 291.236 22.8894 292.464 22.8894C293.514 22.8894 294.431 23.1029 295.214 23.5301C296.015 23.9572 296.629 24.5179 297.056 25.212V23.1029H301.621V38H297.056V35.8909C296.611 36.585 295.988 37.1457 295.187 37.5728C294.404 38 293.488 38.2136 292.438 38.2136C291.227 38.2136 290.124 37.9021 289.127 37.2792C288.13 36.6384 287.338 35.7396 286.751 34.5828C286.182 33.4081 285.897 32.0554 285.897 30.5248ZM297.056 30.5515C297.056 29.4124 296.736 28.5136 296.095 27.855C295.472 27.1965 294.707 26.8672 293.799 26.8672C292.891 26.8672 292.117 27.1965 291.477 27.855C290.854 28.4958 290.542 29.3857 290.542 30.5248C290.542 31.6639 290.854 32.5716 291.477 33.2479C292.117 33.9064 292.891 34.2357 293.799 34.2357C294.707 34.2357 295.472 33.9064 296.095 33.2479C296.736 32.5894 297.056 31.6906 297.056 30.5515ZM324.2 22.9428C326.051 22.9428 327.519 23.5034 328.605 24.6247C329.708 25.746 330.26 27.3033 330.26 29.2967V38H325.721V29.9107C325.721 28.9496 325.463 28.211 324.947 27.6949C324.449 27.1609 323.755 26.8939 322.865 26.8939C321.975 26.8939 321.272 27.1609 320.756 27.6949C320.257 28.211 320.008 28.9496 320.008 29.9107V38H315.47V29.9107C315.47 28.9496 315.212 28.211 314.695 27.6949C314.197 27.1609 313.503 26.8939 312.613 26.8939C311.723 26.8939 311.02 27.1609 310.504 27.6949C310.006 28.211 309.756 28.9496 309.756 29.9107V38H305.191V23.1029H309.756V24.9717C310.219 24.3488 310.824 23.8594 311.572 23.5034C312.319 23.1296 313.165 22.9428 314.108 22.9428C315.229 22.9428 316.226 23.183 317.098 23.6636C317.988 24.1441 318.682 24.8294 319.181 25.7193C319.697 24.9006 320.4 24.2331 321.29 23.717C322.18 23.2008 323.15 22.9428 324.2 22.9428ZM332.812 30.5248C332.812 28.9941 333.097 27.6504 333.666 26.4935C334.254 25.3366 335.046 24.4467 336.042 23.8238C337.039 23.2008 338.151 22.8894 339.38 22.8894C340.43 22.8894 341.346 23.1029 342.129 23.5301C342.93 23.9572 343.544 24.5179 343.971 25.212V23.1029H348.537V38H343.971V35.8909C343.526 36.585 342.904 37.1457 342.103 37.5728C341.32 38 340.403 38.2136 339.353 38.2136C338.143 38.2136 337.039 37.9021 336.042 37.2792C335.046 36.6384 334.254 35.7396 333.666 34.5828C333.097 33.4081 332.812 32.0554 332.812 30.5248ZM343.971 30.5515C343.971 29.4124 343.651 28.5136 343.01 27.855C342.387 27.1965 341.622 26.8672 340.714 26.8672C339.807 26.8672 339.032 27.1965 338.392 27.855C337.769 28.4958 337.457 29.3857 337.457 30.5248C337.457 31.6639 337.769 32.5716 338.392 33.2479C339.032 33.9064 339.807 34.2357 340.714 34.2357C341.622 34.2357 342.387 33.9064 343.01 33.2479C343.651 32.5894 343.971 31.6906 343.971 30.5515ZM351.199 30.5248C351.199 28.9941 351.483 27.6504 352.053 26.4935C352.64 25.3366 353.432 24.4467 354.429 23.8238C355.426 23.2008 356.538 22.8894 357.766 22.8894C358.745 22.8894 359.635 23.094 360.436 23.5034C361.255 23.9128 361.895 24.4645 362.358 25.1586V18.244H366.923V38H362.358V35.8642C361.931 36.5761 361.317 37.1457 360.516 37.5728C359.733 38 358.816 38.2136 357.766 38.2136C356.538 38.2136 355.426 37.9021 354.429 37.2792C353.432 36.6384 352.64 35.7396 352.053 34.5828C351.483 33.4081 351.199 32.0554 351.199 30.5248ZM362.358 30.5515C362.358 29.4124 362.038 28.5136 361.397 27.855C360.774 27.1965 360.009 26.8672 359.101 26.8672C358.193 26.8672 357.419 27.1965 356.778 27.855C356.155 28.4958 355.844 29.3857 355.844 30.5248C355.844 31.6639 356.155 32.5716 356.778 33.2479C357.419 33.9064 358.193 34.2357 359.101 34.2357C360.009 34.2357 360.774 33.9064 361.397 33.2479C362.038 32.5894 362.358 31.6906 362.358 30.5515ZM369.585 30.5248C369.585 28.9941 369.87 27.6504 370.44 26.4935C371.027 25.3366 371.819 24.4467 372.816 23.8238C373.812 23.2008 374.925 22.8894 376.153 22.8894C377.203 22.8894 378.12 23.1029 378.903 23.5301C379.704 23.9572 380.318 24.5179 380.745 25.212V23.1029H385.31V38H380.745V35.8909C380.3 36.585 379.677 37.1457 378.876 37.5728C378.093 38 377.176 38.2136 376.126 38.2136C374.916 38.2136 373.812 37.9021 372.816 37.2792C371.819 36.6384 371.027 35.7396 370.44 34.5828C369.87 33.4081 369.585 32.0554 369.585 30.5248ZM380.745 30.5515C380.745 29.4124 380.424 28.5136 379.784 27.855C379.161 27.1965 378.395 26.8672 377.488 26.8672C376.58 26.8672 375.806 27.1965 375.165 27.855C374.542 28.4958 374.231 29.3857 374.231 30.5248C374.231 31.6639 374.542 32.5716 375.165 33.2479C375.806 33.9064 376.58 34.2357 377.488 34.2357C378.395 34.2357 379.161 33.9064 379.784 33.2479C380.424 32.5894 380.745 31.6906 380.745 30.5515ZM397.957 22.9428C399.701 22.9428 401.089 23.5123 402.122 24.6514C403.172 25.7727 403.697 27.3211 403.697 29.2967V38H399.158V29.9107C399.158 28.914 398.9 28.1398 398.384 27.5881C397.868 27.0363 397.174 26.7605 396.302 26.7605C395.429 26.7605 394.735 27.0363 394.219 27.5881C393.703 28.1398 393.445 28.914 393.445 29.9107V38H388.88V23.1029H393.445V25.0785C393.908 24.42 394.531 23.9039 395.314 23.5301C396.097 23.1385 396.978 22.9428 397.957 22.9428Z" fill="white"/>
<path d="M136.11 60.5663C135.691 59.685 135.085 59.006 134.29 58.5293C133.496 58.0381 132.571 57.7925 131.516 57.7925C130.462 57.7925 129.508 58.0381 128.656 58.5293C127.818 59.006 127.153 59.6995 126.662 60.6096C126.185 61.5053 125.947 62.5455 125.947 63.7301C125.947 64.9147 126.185 65.9549 126.662 66.8506C127.153 67.7463 127.818 68.4397 128.656 68.9309C129.508 69.4077 130.462 69.646 131.516 69.646C132.99 69.646 134.203 69.2054 135.157 68.3242C136.11 67.4429 136.667 66.2511 136.826 64.7486H130.801V63.145H138.927V64.6619C138.812 65.9043 138.422 67.0456 137.757 68.0858C137.093 69.1115 136.219 69.9278 135.135 70.5345C134.052 71.1268 132.845 71.423 131.516 71.423C130.115 71.423 128.836 71.0979 127.681 70.4478C126.525 69.7833 125.608 68.8659 124.929 67.6957C124.264 66.5256 123.932 65.2037 123.932 63.7301C123.932 62.2566 124.264 60.9347 124.929 59.7645C125.608 58.5799 126.525 57.6625 127.681 57.0124C128.836 56.3478 130.115 56.0156 131.516 56.0156C133.12 56.0156 134.536 56.4129 135.764 57.2074C137.006 58.002 137.909 59.1216 138.472 60.5663H136.11ZM146.931 71.488C145.818 71.488 144.807 71.2352 143.897 70.7295C143.001 70.2239 142.293 69.5088 141.773 68.5842C141.268 67.6452 141.015 66.5617 141.015 65.3337C141.015 64.1202 141.275 63.0511 141.795 62.1265C142.329 61.1875 143.052 60.4724 143.962 59.9812C144.872 59.4756 145.891 59.2227 147.017 59.2227C148.144 59.2227 149.163 59.4756 150.073 59.9812C150.983 60.4724 151.698 61.1803 152.218 62.1049C152.753 63.0295 153.02 64.1057 153.02 65.3337C153.02 66.5617 152.745 67.6452 152.197 68.5842C151.662 69.5088 150.932 70.2239 150.008 70.7295C149.083 71.2352 148.058 71.488 146.931 71.488ZM146.931 69.7544C147.639 69.7544 148.303 69.5883 148.924 69.256C149.546 68.9237 150.044 68.4253 150.42 67.7607C150.81 67.0962 151.005 66.2872 151.005 65.3337C151.005 64.3802 150.817 63.5712 150.441 62.9067C150.066 62.2421 149.574 61.7509 148.968 61.4331C148.361 61.1008 147.704 60.9347 146.996 60.9347C146.273 60.9347 145.609 61.1008 145.002 61.4331C144.41 61.7509 143.933 62.2421 143.572 62.9067C143.211 63.5712 143.03 64.3802 143.03 65.3337C143.03 66.3016 143.203 67.1179 143.55 67.7824C143.911 68.447 144.388 68.9454 144.98 69.2777C145.573 69.5955 146.223 69.7544 146.931 69.7544ZM160.25 69.4727L163.934 59.4178H166.036L161.377 71.293H159.08L154.421 59.4178H156.545L160.25 69.4727ZM179.028 64.9003C179.028 65.2759 179.007 65.6732 178.963 66.0922H169.472C169.544 67.2623 169.941 68.1797 170.664 68.8443C171.4 69.4944 172.289 69.8194 173.329 69.8194C174.181 69.8194 174.889 69.6244 175.453 69.2343C176.031 68.8298 176.435 68.2953 176.666 67.6307H178.79C178.472 68.772 177.836 69.7038 176.883 70.4262C175.929 71.1341 174.745 71.488 173.329 71.488C172.202 71.488 171.191 71.2352 170.295 70.7295C169.414 70.2239 168.721 69.5088 168.215 68.5842C167.709 67.6452 167.456 66.5617 167.456 65.3337C167.456 64.1057 167.702 63.0295 168.193 62.1049C168.684 61.1803 169.371 60.4724 170.252 59.9812C171.148 59.4756 172.173 59.2227 173.329 59.2227C174.456 59.2227 175.453 59.4683 176.32 59.9595C177.186 60.4507 177.851 61.1297 178.313 61.9965C178.79 62.8489 179.028 63.8168 179.028 64.9003ZM176.991 64.4886C176.991 63.7373 176.825 63.0945 176.493 62.5599C176.161 62.011 175.706 61.5992 175.128 61.3247C174.564 61.0358 173.936 60.8913 173.242 60.8913C172.246 60.8913 171.393 61.2092 170.685 61.8448C169.992 62.4805 169.595 63.3617 169.493 64.4886H176.991ZM183.82 61.3464C184.167 60.6674 184.658 60.1401 185.293 59.7645C185.944 59.3889 186.731 59.2011 187.656 59.2011V61.2381H187.135C184.925 61.2381 183.82 62.4371 183.82 64.8353V71.293H181.848V59.4178H183.82V61.3464ZM195.934 59.2011C197.379 59.2011 198.549 59.6417 199.445 60.5229C200.341 61.3897 200.789 62.6466 200.789 64.2935V71.293H198.838V64.5752C198.838 63.3906 198.542 62.4877 197.95 61.8665C197.357 61.2308 196.548 60.913 195.523 60.913C194.483 60.913 193.652 61.2381 193.031 61.8882C192.424 62.5383 192.121 63.4845 192.121 64.7269V71.293H190.149V59.4178H192.121V61.108C192.511 60.5013 193.038 60.0318 193.702 59.6995C194.381 59.3672 195.125 59.2011 195.934 59.2011ZM218.507 59.2011C219.432 59.2011 220.255 59.3961 220.977 59.7862C221.7 60.1618 222.27 60.7324 222.689 61.4981C223.108 62.2638 223.318 63.1956 223.318 64.2935V71.293H221.368V64.5752C221.368 63.3906 221.071 62.4877 220.479 61.8665C219.901 61.2308 219.114 60.913 218.117 60.913C217.091 60.913 216.275 61.2453 215.668 61.9098C215.062 62.5599 214.758 63.5062 214.758 64.7486V71.293H212.808V64.5752C212.808 63.3906 212.512 62.4877 211.919 61.8665C211.342 61.2308 210.554 60.913 209.557 60.913C208.532 60.913 207.715 61.2453 207.109 61.9098C206.502 62.5599 206.198 63.5062 206.198 64.7486V71.293H204.227V59.4178H206.198V61.1297C206.589 60.5085 207.109 60.0318 207.759 59.6995C208.423 59.3672 209.153 59.2011 209.947 59.2011C210.944 59.2011 211.825 59.425 212.591 59.8728C213.357 60.3207 213.927 60.978 214.303 61.8448C214.635 61.0069 215.184 60.3568 215.95 59.8945C216.716 59.4322 217.568 59.2011 218.507 59.2011ZM237.604 64.9003C237.604 65.2759 237.583 65.6732 237.539 66.0922H228.048C228.12 67.2623 228.517 68.1797 229.24 68.8443C229.976 69.4944 230.865 69.8194 231.905 69.8194C232.757 69.8194 233.465 69.6244 234.029 69.2343C234.607 68.8298 235.011 68.2953 235.242 67.6307H237.366C237.048 68.772 236.412 69.7038 235.459 70.4262C234.506 71.1341 233.321 71.488 231.905 71.488C230.778 71.488 229.767 71.2352 228.871 70.7295C227.99 70.2239 227.297 69.5088 226.791 68.5842C226.285 67.6452 226.033 66.5617 226.033 65.3337C226.033 64.1057 226.278 63.0295 226.769 62.1049C227.26 61.1803 227.947 60.4724 228.828 59.9812C229.724 59.4756 230.749 59.2227 231.905 59.2227C233.032 59.2227 234.029 59.4683 234.896 59.9595C235.762 60.4507 236.427 61.1297 236.889 61.9965C237.366 62.8489 237.604 63.8168 237.604 64.9003ZM235.567 64.4886C235.567 63.7373 235.401 63.0945 235.069 62.5599C234.737 62.011 234.282 61.5992 233.704 61.3247C233.14 61.0358 232.512 60.8913 231.818 60.8913C230.822 60.8913 229.969 61.2092 229.261 61.8448C228.568 62.4805 228.171 63.3617 228.069 64.4886H235.567ZM246.21 59.2011C247.655 59.2011 248.825 59.6417 249.72 60.5229C250.616 61.3897 251.064 62.6466 251.064 64.2935V71.293H249.114V64.5752C249.114 63.3906 248.818 62.4877 248.225 61.8665C247.633 61.2308 246.824 60.913 245.798 60.913C244.758 60.913 243.927 61.2381 243.306 61.8882C242.699 62.5383 242.396 63.4845 242.396 64.7269V71.293H240.424V59.4178H242.396V61.108C242.786 60.5013 243.313 60.0318 243.978 59.6995C244.657 59.3672 245.401 59.2011 246.21 59.2011ZM256.907 61.043V68.0425C256.907 68.6203 257.03 69.0321 257.276 69.2777C257.521 69.5088 257.947 69.6244 258.554 69.6244H260.006V71.293H258.229C257.131 71.293 256.308 71.0402 255.759 70.5345C255.21 70.0289 254.935 69.1982 254.935 68.0425V61.043H253.397V59.4178H254.935V56.4273H256.907V59.4178H260.006V61.043H256.907ZM273.785 71.488C272.673 71.488 271.662 71.2352 270.751 70.7295C269.856 70.2239 269.148 69.5088 268.628 68.5842C268.122 67.6452 267.869 66.5617 267.869 65.3337C267.869 64.1202 268.129 63.0511 268.649 62.1265C269.184 61.1875 269.906 60.4724 270.816 59.9812C271.727 59.4756 272.745 59.2227 273.872 59.2227C274.999 59.2227 276.017 59.4756 276.927 59.9812C277.838 60.4724 278.553 61.1803 279.073 62.1049C279.607 63.0295 279.874 64.1057 279.874 65.3337C279.874 66.5617 279.6 67.6452 279.051 68.5842C278.517 69.5088 277.787 70.2239 276.862 70.7295C275.938 71.2352 274.912 71.488 273.785 71.488ZM273.785 69.7544C274.493 69.7544 275.158 69.5883 275.779 69.256C276.4 68.9237 276.898 68.4253 277.274 67.7607C277.664 67.0962 277.859 66.2872 277.859 65.3337C277.859 64.3802 277.671 63.5712 277.296 62.9067C276.92 62.2421 276.429 61.7509 275.822 61.4331C275.215 61.1008 274.558 60.9347 273.85 60.9347C273.128 60.9347 272.463 61.1008 271.857 61.4331C271.264 61.7509 270.788 62.2421 270.426 62.9067C270.065 63.5712 269.885 64.3802 269.885 65.3337C269.885 66.3016 270.058 67.1179 270.405 67.7824C270.766 68.447 271.243 68.9454 271.835 69.2777C272.427 69.5955 273.077 69.7544 273.785 69.7544ZM287.516 61.043H285.024V71.293H283.052V61.043H281.514V59.4178H283.052V58.5726C283.052 57.2435 283.392 56.2756 284.071 55.6689C284.764 55.0476 285.869 54.737 287.386 54.737V56.384C286.52 56.384 285.906 56.5573 285.544 56.904C285.198 57.2363 285.024 57.7925 285.024 58.5726V59.4178H287.516V61.043ZM306.125 60.6096C306.125 61.8665 305.691 62.9139 304.824 63.7518C303.972 64.5752 302.665 64.987 300.902 64.987H297.998V71.293H296.026V56.1889H300.902C302.607 56.1889 303.9 56.6007 304.781 57.4241C305.677 58.2476 306.125 59.3094 306.125 60.6096ZM300.902 63.3617C302 63.3617 302.809 63.1234 303.329 62.6466C303.849 62.1699 304.109 61.4909 304.109 60.6096C304.109 58.746 303.04 57.8142 300.902 57.8142H297.998V63.3617H300.902ZM319.324 59.4178V71.293H317.352V69.5377C316.976 70.1445 316.449 70.6212 315.77 70.9679C315.105 71.3002 314.369 71.4663 313.56 71.4663C312.635 71.4663 311.804 71.2785 311.068 70.9029C310.331 70.5128 309.746 69.935 309.312 69.1693C308.893 68.4036 308.684 67.4718 308.684 66.3739V59.4178H310.634V66.1138C310.634 67.284 310.93 68.1869 311.523 68.8226C312.115 69.4438 312.924 69.7544 313.95 69.7544C315.004 69.7544 315.835 69.4293 316.442 68.7792C317.048 68.1291 317.352 67.1829 317.352 65.9405V59.4178H319.324ZM328.656 59.2011C330.101 59.2011 331.271 59.6417 332.167 60.5229C333.062 61.3897 333.51 62.6466 333.51 64.2935V71.293H331.56V64.5752C331.56 63.3906 331.264 62.4877 330.671 61.8665C330.079 61.2308 329.27 60.913 328.244 60.913C327.204 60.913 326.373 61.2381 325.752 61.8882C325.145 62.5383 324.842 63.4845 324.842 64.7269V71.293H322.87V59.4178H324.842V61.108C325.232 60.5013 325.759 60.0318 326.424 59.6995C327.103 59.3672 327.847 59.2011 328.656 59.2011ZM338.01 57.4891C337.634 57.4891 337.316 57.3591 337.056 57.0991C336.811 56.839 336.688 56.5212 336.688 56.1456C336.688 55.77 336.811 55.4522 337.056 55.1921C337.316 54.9321 337.634 54.802 338.01 54.802C338.385 54.802 338.696 54.9321 338.942 55.1921C339.202 55.4522 339.332 55.77 339.332 56.1456C339.332 56.5212 339.202 56.839 338.942 57.0991C338.696 57.3591 338.385 57.4891 338.01 57.4891ZM338.985 73.8717C338.985 74.9263 338.718 75.6992 338.183 76.1904C337.649 76.6816 336.869 76.9272 335.843 76.9272H334.694V75.2586H335.518C336.067 75.2586 336.45 75.1502 336.666 74.9335C336.897 74.7168 337.013 74.3484 337.013 73.8284V59.4178H338.985V73.8717ZM341.803 65.312C341.803 64.0985 342.049 63.0367 342.54 62.1265C343.031 61.2019 343.703 60.4868 344.555 59.9812C345.422 59.4756 346.383 59.2227 347.437 59.2227C348.478 59.2227 349.38 59.4467 350.146 59.8945C350.912 60.3424 351.482 60.9058 351.858 61.5848V59.4178H353.852V71.293H351.858V69.0826C351.468 69.7761 350.883 70.3539 350.103 70.8162C349.337 71.2641 348.441 71.488 347.416 71.488C346.361 71.488 345.408 71.228 344.555 70.7079C343.703 70.1878 343.031 69.4582 342.54 68.5192C342.049 67.5802 341.803 66.5111 341.803 65.312ZM351.858 65.3337C351.858 64.438 351.677 63.6579 351.316 62.9933C350.955 62.3288 350.464 61.8232 349.843 61.4764C349.236 61.1153 348.564 60.9347 347.827 60.9347C347.091 60.9347 346.419 61.108 345.812 61.4548C345.205 61.8015 344.721 62.3071 344.36 62.9717C343.999 63.6362 343.818 64.4163 343.818 65.312C343.818 66.2222 343.999 67.0167 344.36 67.6957C344.721 68.3603 345.205 68.8731 345.812 69.2343C346.419 69.581 347.091 69.7544 347.827 69.7544C348.564 69.7544 349.236 69.581 349.843 69.2343C350.464 68.8731 350.955 68.3603 351.316 67.6957C351.677 67.0167 351.858 66.2294 351.858 65.3337ZM359.373 61.6281C359.777 60.9202 360.37 60.3424 361.15 59.8945C361.93 59.4467 362.818 59.2227 363.815 59.2227C364.884 59.2227 365.845 59.4756 366.697 59.9812C367.55 60.4868 368.221 61.2019 368.713 62.1265C369.204 63.0367 369.449 64.0985 369.449 65.312C369.449 66.5111 369.204 67.5802 368.713 68.5192C368.221 69.4582 367.542 70.1878 366.676 70.7079C365.823 71.228 364.87 71.488 363.815 71.488C362.789 71.488 361.887 71.2641 361.106 70.8162C360.341 70.3684 359.763 69.7977 359.373 69.1043V71.293H357.401V55.2571H359.373V61.6281ZM367.434 65.312C367.434 64.4163 367.254 63.6362 366.892 62.9717C366.531 62.3071 366.04 61.8015 365.419 61.4548C364.812 61.108 364.14 60.9347 363.403 60.9347C362.681 60.9347 362.009 61.1153 361.388 61.4764C360.781 61.8232 360.29 62.336 359.915 63.015C359.553 63.6796 359.373 64.4525 359.373 65.3337C359.373 66.2294 359.553 67.0167 359.915 67.6957C360.29 68.3603 360.781 68.8731 361.388 69.2343C362.009 69.581 362.681 69.7544 363.403 69.7544C364.14 69.7544 364.812 69.581 365.419 69.2343C366.04 68.8731 366.531 68.3603 366.892 67.6957C367.254 67.0167 367.434 66.2222 367.434 65.312Z" fill="#E9E9E9"/>
<path fill-rule="evenodd" clip-rule="evenodd" d="M53.4165 0C73.749 0 90.3706 16.6216 90.3706 36.9541C90.3706 57.2866 73.749 73.9082 53.4165 73.9082C33.0067 73.9082 16.3851 57.2866 16.3851 36.9541C16.3851 16.6216 33.0067 0 53.4165 0ZM19.0136 35.6398C24.0388 36.0264 28.6001 33.8617 34.0117 31.7743C38.1092 30.4601 41.7427 31.1559 45.6082 32.7021C50.0922 35.4079 54.4215 35.8718 59.0601 32.7021C63.3895 30.3828 68.0281 30.7693 72.5893 32.7021C77.3826 35.0214 82.4077 36.0264 87.8194 35.7944C87.2782 17.3947 72.0482 2.47391 53.4938 2.47391C34.8622 2.47391 19.6321 17.3174 19.0136 35.6398ZM19.0909 41.3608C23.9615 41.7473 28.5227 39.5826 33.9344 37.4953C38.0319 36.181 41.6654 36.8768 45.5309 38.423C50.0149 41.1288 54.3442 41.5927 58.9828 38.423C63.3122 36.1037 67.9507 36.4902 72.512 38.423C77.3052 40.7423 82.3304 41.7473 87.5101 41.5154C87.5875 40.5877 87.7421 39.6599 87.6648 38.5003C82.2531 38.8095 77.2279 37.7272 72.4347 35.4079C67.8734 33.3978 63.2349 33.0886 58.9055 35.4079C54.3442 38.5776 50.0149 38.1137 45.4536 35.4079C41.5881 33.8617 37.9545 33.1659 33.8571 34.4802C28.4454 36.5675 23.8842 38.7322 18.859 38.5003C18.9363 39.5826 19.1683 40.5103 19.0909 41.3608ZM20.4825 47.159C24.8892 47.159 29.1412 45.0716 33.9344 43.2935C38.0319 41.9792 41.6654 42.675 45.5309 44.2212C50.0149 46.9271 54.3442 47.3909 58.9828 44.2212C63.3122 41.9019 67.9507 42.2885 72.512 44.2212C76.8414 46.3086 81.5573 47.3909 86.2732 47.2363C86.4278 46.2313 86.737 45.3809 86.969 44.2985C81.8665 44.4532 77.0733 43.4481 72.512 41.2834C67.9507 39.2734 63.3122 38.9642 58.9828 41.2834C54.4215 44.4531 50.0922 43.9893 45.5309 41.2834C41.6654 39.7373 38.0319 39.0415 33.9344 40.3557C28.832 42.2885 24.5026 44.2212 19.7094 44.2212C19.864 45.1489 20.2506 46.0767 20.4825 47.159ZM22.8018 52.648C26.2808 52.1841 29.9143 50.4833 33.9344 48.9371C38.0319 47.6229 41.6654 48.3186 45.5309 49.8648C50.0149 52.5707 54.3442 53.0345 58.9828 49.8648C63.3122 47.5455 67.9507 47.8548 72.512 49.8648C76.1456 51.643 79.9338 52.648 83.7993 52.8026C84.1085 51.8749 84.727 50.9472 85.1908 49.9421C80.8615 49.9421 76.5321 48.8598 72.512 46.9271C67.9507 44.917 63.3122 44.6078 58.9828 46.9271C54.4215 50.0195 50.0922 49.6329 45.5309 46.9271C41.6654 45.3809 38.0319 44.6851 33.9344 45.9993C29.3732 47.7002 25.5077 49.6329 21.4102 49.8648C21.9514 50.7926 22.4926 51.7976 22.8018 52.648ZM27.7496 59.7605C34.2437 66.7957 43.3662 71.4343 53.3392 71.4343C63.0029 71.4343 71.6616 67.1822 78.1557 60.6109C76.3002 60.147 74.4448 59.2966 72.512 58.4462C67.9507 56.4362 63.3122 56.1269 58.9828 58.4462C54.4215 61.5386 50.0922 61.1521 45.5309 58.4462C41.6654 56.9 38.0319 56.2042 33.9344 57.5185C31.7698 58.2916 29.7597 59.142 27.7496 59.7605ZM25.9715 57.5958C28.5227 56.9773 31.1513 55.8177 34.0117 54.7354C38.1092 53.4211 41.7427 54.1169 45.6082 55.6631C50.0922 58.3689 54.4215 58.7555 59.0601 55.6631C63.3895 53.3438 68.0281 53.653 72.5893 55.6631C75.2179 56.9 77.8464 57.8278 80.4749 58.2143C80.9388 57.2866 81.6346 56.3589 82.3304 55.5085C79.0834 55.1992 75.8364 54.1942 72.5893 52.648C68.0281 50.6379 63.3895 50.3287 59.0601 52.648C54.4988 55.7404 50.1695 55.3538 45.6082 52.648C41.7427 51.1018 38.1092 50.406 34.0117 51.7203C30.5328 53.0345 27.2858 54.5034 24.2707 55.1219C24.8892 55.895 25.4303 56.7454 25.9715 57.5958Z" fill="white"/>
<path fill-rule="evenodd" clip-rule="evenodd" d="M44.2936 14.8434C45.144 18.5543 48.1591 21.3375 52.0246 21.3375C56.4312 21.3375 59.9102 17.8585 59.9102 13.4518C59.9102 9.58636 57.2043 6.41665 53.4934 5.64355C58.364 5.64355 62.4614 9.74098 62.4614 14.7661C62.4614 19.7913 58.364 23.8887 53.2615 23.8887C48.3137 23.8887 44.2163 19.7913 44.2936 14.8434ZM44.8347 12.6787L48.1591 12.2922L49.5506 15.3846L50.2464 12.1376L53.6481 11.6737L50.7876 9.97291L51.4834 6.72589L49.0095 8.96788L46.0717 7.26706L47.4633 10.3595L44.8347 12.6787Z" fill="white"/>
<path fill-rule="evenodd" clip-rule="evenodd" d="M85.6542 74.6813L86.7366 73.6762L85.6542 74.6813Z" fill="white"/>
<path fill-rule="evenodd" clip-rule="evenodd" d="M21.0232 74.6813L19.9409 73.6762L21.0232 74.6813Z" fill="white"/>
<path d="M99.4154 45.6128L99.6473 44.1439M99.3381 42.9842L99.4154 41.1288M98.1784 39.7372L98.0238 37.8818M95.318 37.2633L95.0861 35.5625M93.7718 39.2734L93.6945 37.8045M92.1483 42.8296L91.7617 41.3607M91.9163 45.5355L91.4525 44.1439M103.049 62.1571L104.286 60.9201M104.286 59.7605L105.368 58.0597M104.904 56.3588L105.677 54.7353M103.667 52.8026L104.363 51.1018M101.348 53.8076L102.121 52.3387M98.1784 56.1269L99.1062 54.1942M96.5549 58.2916L96.8642 56.5908M88.4374 81.6392L89.829 81.3299M90.9113 80.4795L92.6894 79.861M93.3852 78.0829L95.0861 77.3098M94.5449 74.5267L96.0138 73.6762M92.071 73.9082L93.3852 73.4443M88.1282 73.8309L89.3651 72.8258M85.6542 74.6813L86.7366 73.6762M12.5965 69.2696L5.32935 57.5958M94.081 69.2696L101.348 57.5958M7.26209 45.6128L7.03017 44.1439M7.3394 42.9842L7.26209 41.0515M8.49905 39.7372L8.65367 37.8818M11.3595 37.2633L11.5914 35.5625M12.8284 39.2734L12.9057 37.8045M14.5292 42.8296L14.9158 41.3607M14.7611 45.5355L15.225 44.1439M3.62853 62.1571L2.39158 60.9201M2.31426 59.7605L1.23193 58.0597M1.7731 56.3588L1 54.7353M3.01005 52.8026L2.31426 51.1018M5.32935 53.8076L4.55625 52.3387M8.49905 56.1269L7.57133 54.1942M10.0452 58.2916L9.73601 56.5908M18.2401 81.6392L16.8485 81.3299M15.7662 80.4795L13.988 79.861M13.2923 78.0829L11.5914 77.3098M12.0553 74.5267L10.5864 73.6762M14.6065 73.9082L13.2923 73.4443M18.5493 73.8309L17.3124 72.8258M21.0232 74.6813L19.9409 73.6762M15.5342 75.2998C14.6065 74.604 13.6788 74.5267 12.5192 74.8359C12.6738 75.8409 13.6015 76.6913 14.9931 77.3871L15.5342 75.2998ZM37.3356 82.1803C31.692 83.6492 25.1207 80.4022 16.8485 77.0779L37.3356 82.1803ZM27.9811 81.4072C28.445 79.3199 27.5173 77.5417 24.8887 75.9182C24.5022 77.2325 25.1207 79.0106 26.203 80.7888C24.1929 81.2526 22.4921 82.103 21.951 83.34C24.8887 83.9585 26.8215 83.1854 27.9811 81.4072ZM24.8114 77.1552C23.961 75.8409 22.956 75.0678 21.3325 75.0678C21.4871 76.4594 22.1829 78.1602 23.2652 79.5518C21.4871 79.6291 19.7863 80.6341 18.7813 81.6392C19.8636 82.5669 21.1006 82.7988 22.5694 82.4896L24.8114 77.1552ZM21.4871 75.9955C20.8686 74.9905 20.0182 74.2947 18.7813 74.1401C18.3174 75.5317 19.0132 77.1552 20.0182 78.2375C18.3174 78.5468 16.9258 79.3199 16.23 80.5568C17.2351 81.3299 18.3174 81.4845 19.477 81.0207L21.4871 75.9955ZM18.472 74.8359C17.5443 73.8309 16.6166 73.7536 15.225 74.1401C15.225 75.1451 15.9208 76.2275 16.9258 77.0779L18.472 74.8359ZM16.6166 79.861C15.3023 79.9383 14.4519 79.3972 13.5242 78.2375C14.4519 77.3871 15.5342 77.0779 16.9258 77.2325L16.6166 79.861ZM11.978 40.6649C12.2872 39.5826 11.978 38.7322 11.2822 37.6499C10.3545 38.2683 9.89063 39.5053 9.89063 40.9742L11.978 40.6649ZM16.7712 67.0276C10.5091 63.0848 11.1276 53.9622 10.973 42.5977L16.7712 67.0276ZM11.2049 54.5807C13.2923 54.1169 14.5292 52.4934 14.9931 49.5556C13.6788 49.6329 12.2872 51.0245 11.1276 52.648C9.96794 50.9472 8.42174 49.7875 7.26209 49.7102C7.72595 52.648 9.11753 54.1942 11.2049 54.5807ZM13.9107 49.9421C14.8385 48.6279 14.9931 47.4682 14.4519 45.922C13.2149 46.6178 11.9007 47.9321 11.1276 49.401C10.3545 47.8548 8.80829 46.6951 7.41671 46.154C6.95286 47.4682 7.3394 48.6279 8.1125 49.9421H13.9107ZM13.7561 46.4632C14.4519 45.5355 14.6838 44.5304 14.4519 43.2162C12.983 43.3708 11.7461 44.6851 11.1276 46.0766C10.1999 44.6077 8.96291 43.6027 7.57133 43.3708C7.2621 44.6851 7.57133 45.6901 8.34443 46.6178L13.7561 46.4632ZM13.6788 43.2935C14.1427 41.9792 13.9107 41.1288 12.983 39.9692C12.0553 40.433 11.2822 41.4381 10.8957 42.675L13.6788 43.2935ZM8.26712 43.3708C7.64864 42.2885 7.95788 41.2061 8.65367 40.1238C9.73601 40.433 10.5091 41.438 10.8957 42.7523L8.26712 43.3708ZM5.32935 55.5084C4.9428 54.4261 4.32432 53.7303 3.24198 53.1891C2.77812 54.1169 2.93275 55.4311 3.70584 56.7454L5.32935 55.5084ZM11.5141 67.878C13.0603 66.4091 13.3696 64.3991 12.2872 61.6159C11.2049 62.4663 10.5864 64.2445 10.4318 66.2545C8.57636 65.4041 6.72092 65.0949 5.56128 65.7133C7.49402 67.9553 9.50408 68.5738 11.5141 67.878ZM11.5914 62.5436C11.6688 60.9201 11.2822 59.7605 9.96794 58.7555C9.27215 59.9924 8.80829 61.8478 8.8856 63.4713C7.41671 62.5436 5.48397 62.1571 4.01508 62.4663C4.40163 63.7806 5.25204 64.7856 6.5663 65.4041L11.5914 62.5436ZM9.6587 59.6059C9.73601 58.3689 9.50408 57.2866 8.57636 56.3588C7.49402 57.2093 7.03016 58.9101 7.10747 60.4563C5.63859 59.6059 4.01508 59.3739 2.70081 59.9151C3.08736 61.2294 3.86046 61.9252 5.02011 62.3117L9.6587 59.6059ZM7.95788 56.8227C7.80326 55.5084 7.03016 54.8127 5.79321 54.2715C5.17473 55.1219 5.09742 56.3588 5.32935 57.6731L7.95788 56.8227ZM3.31929 59.6832C2.23696 58.9874 1.92772 57.9824 1.92772 56.5908C3.08736 56.4362 4.24701 56.9 5.17473 57.8277L3.31929 59.6832ZM35.944 77.851C29.7592 76.3048 22.8014 69.1923 17.9308 70.0427L35.944 77.851ZM42.3608 78.9333C26.2803 72.9031 20.5594 59.7605 10.5091 71.357C21.6417 69.8108 31.0735 80.8661 41.1238 79.7837L42.3608 78.9333ZM32.1559 83.2627C39.423 84.7316 43.8296 72.8258 53.4161 78.2375C46.2262 77.6191 39.5776 90.3752 32.1559 83.2627ZM91.1432 75.2998C92.071 74.604 92.9987 74.5267 94.1583 74.8359C94.0037 75.8409 93.076 76.6913 91.6844 77.3871L91.1432 75.2998ZM69.3419 82.1803C74.9855 83.6492 81.5568 80.4022 89.829 77.0779L69.3419 82.1803ZM78.6964 81.4072C78.2325 79.3199 79.1602 77.5417 81.7888 75.9182C82.2526 77.2325 81.5568 79.0106 80.4745 80.7888C82.4845 81.2526 84.1854 82.103 84.7265 83.34C81.7888 83.9585 79.856 83.1854 78.6964 81.4072ZM81.8661 77.1552C82.7165 75.8409 83.7215 75.0678 85.345 75.0678C85.1904 76.4594 84.4946 78.1602 83.4123 79.5518C85.1904 79.6291 86.8912 80.6341 87.8962 81.6392C86.8139 82.5669 85.5769 82.7988 84.108 82.4896L81.8661 77.1552ZM85.1904 75.9955C85.8862 74.9905 86.6593 74.2947 87.8962 74.1401C88.3601 75.5317 87.6643 77.1552 86.6593 78.2375C88.3601 78.5468 89.7517 79.3199 90.4475 80.5568C89.4424 81.3299 88.3601 81.4845 87.2004 81.0207L85.1904 75.9955ZM88.2055 74.8359C89.1332 73.8309 90.0609 73.7536 91.4525 74.1401C91.4525 75.1451 90.7567 76.2275 89.7517 77.0779L88.2055 74.8359ZM90.0609 79.861C91.3752 79.9383 92.2256 79.3972 93.1533 78.2375C92.2256 77.3871 91.1432 77.0779 89.7517 77.2325L90.0609 79.861ZM94.6995 40.6649C94.3903 39.5826 94.6995 38.7322 95.3953 37.6499C96.323 38.2683 96.7869 39.5053 96.7869 40.9742L94.6995 40.6649ZM89.9063 67.0276C96.1684 63.0848 95.5499 53.9622 95.7045 42.5977L89.9063 67.0276ZM95.4726 54.5807C93.3852 54.1169 92.1483 52.4934 91.6844 49.5556C92.9987 49.6329 94.3903 51.0245 95.5499 52.648C96.7096 50.9472 98.2557 49.7875 99.4154 49.7102C98.9515 52.648 97.56 54.1942 95.4726 54.5807ZM92.7668 49.9421C91.839 48.6279 91.6844 47.4682 92.2256 45.922C93.4625 46.6178 94.7768 47.9321 95.5499 49.401C96.323 47.8548 97.8692 46.6951 99.2608 46.154C99.7246 47.4682 99.3381 48.6279 98.565 49.9421H92.7668ZM92.9214 46.4632C92.2256 45.5355 91.9936 44.5304 92.2256 43.2162C93.6945 43.3708 94.9314 44.6851 95.5499 46.0766C96.4776 44.6077 97.7146 43.6027 99.1062 43.3708C99.4154 44.6851 99.1062 45.6901 98.3331 46.6178L92.9214 46.4632ZM92.9987 43.2935C92.5348 41.9792 92.7668 41.1288 93.6945 39.9692C94.6222 40.433 95.3953 41.4381 95.7818 42.675L92.9987 43.2935ZM98.4104 43.3708C99.0288 42.2885 98.7196 41.2061 98.0238 40.1238C96.9415 40.433 96.1684 41.438 95.7818 42.7523L98.4104 43.3708ZM101.348 55.5084C101.735 54.4261 102.43 53.7303 103.435 53.1891C103.899 54.1169 103.745 55.4311 102.972 56.7454L101.348 55.5084ZM95.1634 67.878C93.6172 66.4091 93.3079 64.3991 94.3903 61.6159C95.4726 62.4663 96.0911 64.2445 96.2457 66.2545C98.1011 65.4041 99.9566 65.0949 101.116 65.7133C99.1061 67.9553 97.1734 68.5738 95.1634 67.878ZM95.0861 62.5436C95.0087 60.9201 95.3953 59.7605 96.7096 58.7555C97.4053 59.9924 97.8692 61.8478 97.7919 63.4713C99.2608 62.5436 101.194 62.1571 102.662 62.4663C102.276 63.7806 101.425 64.7856 100.111 65.4041L95.0861 62.5436ZM97.0188 59.6059C96.9415 58.3689 97.1734 57.2866 98.1011 56.3588C99.1835 57.2093 99.6473 58.9101 99.57 60.4563C101.039 59.6059 102.662 59.3739 103.977 59.9151C103.59 61.2294 102.817 61.9252 101.657 62.3117L97.0188 59.6059ZM98.7196 56.8227C98.8742 55.5084 99.6473 54.8127 100.884 54.2715C101.503 55.1219 101.58 56.3588 101.348 57.6731L98.7196 56.8227ZM103.281 59.6832C104.363 58.9874 104.672 57.9824 104.672 56.5908C103.513 56.4362 102.353 56.9 101.425 57.8277L103.281 59.6832ZM70.7335 77.851C76.9182 76.3048 83.8761 69.1923 88.7466 70.0427L70.7335 77.851ZM64.3167 78.9333C80.3972 72.9031 86.1181 59.7605 96.1684 71.357C85.0358 69.8108 75.604 80.8661 65.5537 79.7837L64.3167 78.9333ZM58.5185 79.7837C56.5084 80.1703 54.8849 80.7114 53.4161 81.2526C52.1018 80.5568 50.0144 80.093 48.159 79.7837H58.5185ZM60.2193 80.7114C58.5185 81.0207 56.7404 81.5619 55.1942 82.103C57.4362 83.1081 59.2916 84.4223 61.0697 86.0458L59.7555 87.1282C57.9 85.2727 55.89 83.8812 53.4161 82.8761C51.0194 83.9585 48.7775 85.35 46.922 87.1282L45.6078 86.0458C47.2313 84.4996 48.9321 83.1854 51.0968 82.103C49.7825 81.5619 48.159 81.0207 46.4582 80.7114H60.2193ZM74.5216 83.2627C67.2545 84.7316 62.8479 72.8258 53.2614 78.2375C60.4512 77.6191 67.0999 90.3752 74.5216 83.2627Z" stroke="white" stroke-width="0.922835" stroke-miterlimit="2.6131"/>
<path fill-rule="evenodd" clip-rule="evenodd" d="M66.7903 59.7604L68.3365 59.0646C68.5684 58.8327 68.8003 58.7554 68.8776 58.6781C69.1095 58.6007 69.3415 58.4461 69.4188 58.2915H69.4961C69.4961 58.4461 69.4188 58.5234 69.4188 58.6007C69.4188 58.6781 69.2642 58.7554 69.2642 58.8327C69.0322 59.1419 68.6457 59.4512 68.1045 59.7604C67.8726 59.8377 67.6407 59.9923 67.3314 60.1469C66.9449 60.3016 66.6356 60.4562 66.4037 60.4562C66.0945 60.6881 65.7852 60.8427 65.6306 60.9973C65.6306 61.0747 65.5533 61.152 65.5533 61.3066C65.476 61.3839 65.476 61.4612 65.476 61.5385C65.476 61.8478 65.476 62.157 65.476 62.4662C65.476 62.7755 65.5533 63.0847 65.5533 63.394C65.5533 63.5486 65.6306 63.7032 65.7079 63.7805C65.7852 63.9351 65.8625 64.0897 66.0172 64.0897H66.0945C66.1718 63.7032 66.4037 63.394 66.4037 63.162C66.6356 62.8528 66.7903 62.5435 67.0222 62.3889C67.0222 62.3889 67.0995 62.3889 67.1768 62.3889C67.2541 62.3116 67.3314 62.3116 67.3314 62.3116C67.486 62.3116 67.6407 62.3889 67.7953 62.3889C68.0272 62.4662 68.2591 62.5435 68.4911 62.6209L68.9549 62.7755C69.0322 62.8528 69.0322 62.8528 68.9549 62.9301C68.8003 63.0074 68.4138 63.394 68.0272 63.9351C67.718 64.399 67.3314 64.6309 67.0222 64.8628C66.7129 65.1721 66.2491 65.3267 65.7079 65.3267C65.6306 65.2494 65.3987 65.1721 65.3987 65.0175C65.3214 64.9401 65.2441 64.7082 65.2441 64.5536C65.1667 64.8628 65.0121 65.0175 64.9348 65.2494C64.8575 65.404 64.7029 65.6359 64.5483 65.7906C64.471 66.1771 64.3937 66.4863 64.3163 66.641C64.239 66.8729 64.1617 67.1048 64.0071 67.3368C63.8525 67.4141 63.6979 67.4141 63.5432 67.4914C63.234 67.5687 63.0794 67.646 62.6928 67.7233C62.6928 67.7233 62.6155 67.7233 62.5382 67.7233C62.4609 67.8006 62.3063 67.8006 62.229 67.8006C62.1517 67.7233 62.1517 67.7233 62.229 67.646C62.3836 67.5687 62.5382 67.4141 62.6928 67.3368C62.9248 67.2594 63.1567 67.1821 63.234 67.0275C63.4659 66.9502 63.5432 66.8729 63.6979 66.7956C63.9298 66.7183 64.0071 66.4863 64.0844 66.409C64.0844 66.3317 64.0844 66.3317 64.0844 66.3317C64.0844 66.2544 64.0844 66.0225 64.0071 66.0225C63.9298 66.0225 63.9298 65.9452 63.9298 65.9452C63.7752 65.9452 63.6979 65.9452 63.6206 65.9452C63.5432 65.9452 63.4659 65.9452 63.3113 65.8679C63.234 65.8679 63.234 65.7906 63.234 65.7132C63.1567 65.6359 63.1567 65.6359 63.1567 65.404C63.1567 65.3267 63.234 65.0948 63.234 64.9401C63.3113 64.7082 63.3886 64.5536 63.3886 64.399C63.4659 64.3217 63.4659 64.3217 63.4659 64.2444C63.4659 64.167 63.5432 64.167 63.5432 64.167C63.6206 64.167 63.6206 64.167 63.6979 64.167C63.8525 64.167 63.9298 64.167 64.0071 64.2444C64.0844 64.3217 64.1617 64.4763 64.1617 64.5536C64.239 64.7082 64.3163 64.8628 64.3163 65.0175C64.3937 65.0175 64.3937 65.0175 64.3937 65.0175C64.471 65.0175 64.471 64.9401 64.471 64.9401C64.5483 64.8628 64.7029 64.7082 64.7029 64.6309C64.7802 64.4763 64.8575 64.2444 64.8575 64.0897C64.8575 64.0124 64.8575 63.9351 64.8575 63.7805C64.8575 63.7032 64.8575 63.7032 64.8575 63.6259C64.8575 63.5486 64.8575 63.3166 64.8575 63.162C64.8575 62.8528 64.8575 62.6982 64.8575 62.6209C64.8575 62.5435 64.8575 62.3116 64.8575 62.2343C64.8575 62.157 64.8575 62.0797 64.8575 62.0024C64.9348 61.5385 65.0894 61.2293 65.2441 60.9973C65.3214 60.7654 65.5533 60.6108 65.7079 60.5335L66.7903 59.7604ZM68.2591 63.162L67.9499 63.0847L67.3314 62.9301C67.2541 62.9301 67.1768 62.9301 67.1768 62.9301C67.0995 62.9301 67.0222 63.0074 66.9449 63.0074C66.8676 63.0847 66.8676 63.2393 66.7129 63.394C66.6356 63.4713 66.5583 63.6259 66.481 63.7032C66.481 63.7805 66.4037 64.0124 66.4037 64.0124C66.4037 64.0897 66.4037 64.0897 66.4037 64.0897C66.7129 64.0897 66.8676 64.0897 67.1768 64.0124C67.4087 63.9351 67.6407 63.7805 67.8726 63.6259C67.9499 63.5486 67.9499 63.4713 68.0272 63.4713C68.1045 63.3166 68.2591 63.162 68.2591 63.162ZM54.2661 64.7082L54.8072 63.9351H54.9618C55.1165 64.0124 55.2711 64.167 55.2711 64.2444C55.4257 64.399 55.5803 64.4763 55.7349 64.5536H55.8123C55.8896 64.3217 56.1215 64.1671 56.2761 64.0124H56.3534C56.508 64.0897 56.6627 64.1671 56.74 64.3217C56.8173 64.399 56.9719 64.4763 57.2038 64.6309C57.2038 64.7082 57.2038 64.7082 57.2038 64.7082C57.1265 64.7855 57.1265 64.7855 56.8946 64.9401C56.8173 65.0948 56.8173 65.2494 56.74 65.2494C56.6627 65.3267 56.5854 65.404 56.508 65.5586C56.4307 65.5586 56.3534 65.4813 56.1988 65.4813C56.1988 65.4813 56.1215 65.404 56.0442 65.404C55.9669 65.3267 55.8896 65.3267 55.7349 65.2494C55.6576 65.1721 55.6576 65.0175 55.5803 64.9401C55.503 65.0948 55.503 65.1721 55.2711 65.2494C55.1938 65.3267 55.0392 65.4813 55.0392 65.5586H54.9618C54.8845 65.5586 54.8845 65.5586 54.7299 65.4813C54.6526 65.404 54.6526 65.404 54.5753 65.404C54.498 65.3267 54.4207 65.2494 54.3434 65.1721C54.3434 64.9402 54.2661 64.7855 54.2661 64.7082ZM62.0744 63.0074C61.997 63.0847 61.7651 63.3166 61.7651 63.3166C61.7651 63.394 61.6878 63.5486 61.6878 63.7805C61.6105 63.8578 61.5332 63.9351 61.3786 64.0124C61.3013 64.0897 61.2239 64.0897 61.1466 64.2444C60.7601 64.7082 60.5282 65.0175 60.4509 65.1721C60.1416 65.4813 59.8324 65.6359 59.5231 65.7132H59.4458C59.3685 65.7132 59.2139 65.7132 59.2139 65.7132C59.2139 65.7132 59.2139 65.6359 59.2912 65.5586C59.3685 65.4813 59.3685 65.3267 59.2912 65.2494C59.2912 65.2494 59.2139 65.2494 59.1366 65.3267C59.0593 65.4813 58.982 65.6359 58.9047 65.7132C58.8273 65.7906 58.6727 65.8679 58.5954 66.0225C58.1316 66.2544 57.6677 66.409 57.0492 66.4864C56.6627 66.5637 55.9669 66.5637 55.3484 66.5637C54.8072 66.5637 54.2661 66.5637 53.8795 66.4864C53.493 66.4864 53.1064 66.3317 52.7972 66.1771C52.7199 66.1771 52.6426 66.0998 52.6426 66.0225C52.5652 65.9452 52.5652 65.7906 52.5652 65.7132C52.5652 65.6359 52.5652 65.6359 52.5652 65.5586C52.5652 65.4813 52.5652 65.4813 52.5652 65.404C52.5652 65.3267 52.4879 65.2494 52.4879 65.2494C52.4879 65.2494 52.4106 65.2494 52.3333 65.3267C52.3333 65.5586 52.256 65.7906 52.256 65.9452C52.256 66.0225 52.256 66.2544 52.256 66.409C52.256 66.4863 52.256 66.641 52.256 66.7183C52.256 66.7956 52.3333 66.9502 52.3333 67.0275C52.4106 67.1821 52.5652 67.3368 52.7972 67.4141C52.7972 67.4914 52.9518 67.4914 53.261 67.5687C53.6476 67.5687 54.0341 67.646 54.4207 67.646C54.8845 67.646 55.2711 67.646 55.7349 67.5687C56.0442 67.4914 56.508 67.4914 56.8946 67.4141C57.4358 67.2594 57.8996 67.1048 58.2089 66.9502C58.6727 66.641 58.982 66.3317 59.2139 65.8679C59.2912 65.9452 59.2912 65.9452 59.4458 65.9452C59.5231 65.9452 59.6004 65.9452 59.6778 66.0225C59.7551 66.0225 59.7551 66.0225 59.7551 66.0225C59.8324 66.0225 60.0643 65.9452 60.1416 65.9452C60.2189 65.8679 60.3735 65.8679 60.5282 65.6359C60.6055 65.4813 60.8374 65.3267 60.9147 65.0948C61.1466 64.8628 61.3013 64.6309 61.5332 64.6309C61.6105 64.5536 61.6105 64.5536 61.6878 64.5536C61.7651 64.5536 61.8424 64.6309 62.0744 64.6309C62.1517 64.6309 62.229 64.7082 62.3063 64.7082C62.3836 64.7082 62.6155 64.6309 62.6928 64.5536C62.7701 64.4763 62.7701 64.3217 62.9248 64.2444C62.9248 64.167 63.0021 64.1671 63.0021 64.0124C63.0021 63.9351 63.0021 63.8578 63.0021 63.7805C62.9248 63.6259 62.7701 63.4713 62.6155 63.3166C62.3063 63.3166 62.1517 63.162 62.0744 63.0074ZM45.1435 68.8056L45.9166 68.1098H45.9939C46.0712 68.1872 46.1485 68.3418 46.3032 68.4191C46.3805 68.5737 46.6124 68.651 46.6897 68.7283C46.6897 68.7283 46.6897 68.8056 46.6124 68.8056L45.9939 69.3468C45.9939 69.4241 45.9166 69.4241 45.9166 69.4241C45.8393 69.4241 45.762 69.4241 45.762 69.3468C45.6847 69.3468 45.6847 69.3468 45.6847 69.2695C45.6074 69.1922 45.5301 69.1149 45.4527 69.0376C45.2981 69.0376 45.2208 68.9603 45.1435 68.8056ZM50.0913 66.5637H50.1686C50.246 66.641 50.3233 66.7183 50.4779 66.8729C50.5552 67.0275 50.7871 67.1048 50.8644 67.1821C50.7871 67.2594 50.7871 67.3368 50.7098 67.4141C50.6325 67.4914 50.5552 67.646 50.4779 67.7233C50.4006 67.7233 50.4006 67.8006 50.4006 67.8006C50.3233 67.8779 50.246 67.8779 50.0913 67.8779C50.014 67.8779 49.8594 67.8006 49.7821 67.7233C49.7048 67.646 49.4729 67.4141 49.4729 67.3368L50.0913 66.5637ZM50.0913 65.8679C49.9367 66.0998 49.7821 66.2544 49.5502 66.4864C49.4729 66.4864 49.3182 66.409 49.2409 66.2544C49.0863 66.1771 49.009 66.1771 48.9317 66.0225C48.8544 65.9452 48.8544 65.8679 48.8544 65.7906C48.9317 65.7132 49.0863 65.5586 49.1636 65.4813C49.2409 65.2494 49.3955 65.1721 49.4729 65.0948H49.5502C49.8594 65.3267 50.014 65.4813 50.014 65.4813C50.0913 65.5586 50.1686 65.5586 50.3233 65.7132L50.7871 65.1721H50.8644C50.9417 65.2494 51.0964 65.4813 51.1737 65.4813C51.3283 65.5586 51.4829 65.6359 51.5602 65.7132C51.5602 65.7906 51.5602 65.7906 51.5602 65.7906C51.5602 65.7906 51.5602 65.8679 51.4829 65.8679L50.9417 66.4864L50.8644 66.5637C50.7871 66.5637 50.7871 66.4864 50.7098 66.4864C50.6325 66.4864 50.6325 66.409 50.5552 66.409C50.4779 66.3317 50.4006 66.2544 50.3233 66.1771C50.2459 66.0998 50.246 66.0225 50.0913 65.8679ZM44.9889 65.8679C44.9889 66.5637 45.0662 66.8729 45.0662 66.9502C45.1435 67.3368 45.3754 67.646 45.6074 67.7233C45.6847 67.7233 45.762 67.8006 45.9166 67.8006C46.1485 67.8006 46.3805 67.7233 46.6124 67.5687C46.8443 67.4141 47.0762 67.2594 47.2309 66.9502L48.3132 65.4813V65.2494C48.3132 65.1721 48.2359 65.1721 48.2359 65.1721C47.6174 65.1721 47.0763 65.0948 46.5351 65.0948C46.5351 65.0948 46.5351 65.0175 46.6124 64.9401C46.767 64.7082 47.0763 64.6309 47.3082 64.4763C47.6174 64.3217 47.8493 64.2444 48.1586 64.2444C48.2359 64.2444 48.3132 64.3217 48.4678 64.4763C48.6224 64.5536 48.7771 64.5536 48.7771 64.5536H48.8544C49.0863 64.4763 49.2409 64.3217 49.3955 64.0897C49.5502 63.9351 49.7048 63.7032 49.8594 63.5486C49.9367 63.4713 49.9367 63.394 49.8594 63.394C49.7821 63.394 49.7821 63.394 49.7821 63.394C49.7048 63.4713 49.6275 63.5486 49.4729 63.7032C49.3182 63.9351 49.1636 64.0124 48.9317 64.0124C48.8544 64.0124 48.8544 64.0124 48.8544 64.0124C48.7771 63.9351 48.6224 63.7805 48.4678 63.7032C48.3132 63.7032 48.1586 63.7805 47.9267 63.7805C47.8493 63.7805 47.4628 64.0124 47.2309 64.0897C46.9216 64.3217 46.6897 64.5536 46.4578 64.6309C46.3031 64.8628 46.1485 65.0948 46.0712 65.4813L46.1485 65.5586H46.2258C46.6897 65.6359 47.2309 65.6359 47.6947 65.6359C47.6174 65.7132 47.6174 65.8679 47.3855 65.9452C47.3855 66.0225 47.3082 66.0998 47.0762 66.2544C46.9989 66.3317 46.767 66.409 46.6124 66.5637C46.4578 66.5637 46.3032 66.641 46.1485 66.641C45.9939 66.641 45.762 66.5637 45.6847 66.409C45.5301 66.3317 45.4527 66.0998 45.3754 65.9452C45.3754 65.7132 45.3754 65.4813 45.2981 65.1721V63.6259C45.2981 63.0847 45.3754 62.5435 45.4527 61.9251C45.4527 61.8478 45.3754 61.8478 45.3754 61.8478C45.2981 61.8478 45.2981 61.9251 45.2208 61.9251C45.2208 61.9251 45.1435 62.157 45.0662 62.5435C44.9889 62.6209 44.9889 62.7755 44.9889 62.9301C44.9889 63.0074 44.9889 63.2393 44.9889 63.3166C44.9889 63.4713 44.9889 63.6259 44.9889 63.7032V64.5536V65.8679ZM47.2309 61.9251L47.9267 61.2293H48.004C48.2359 61.3839 48.3905 61.5385 48.4678 61.6931C48.4678 61.7704 48.5451 61.7704 48.6224 61.7704C48.6998 61.8478 48.6998 61.8478 48.6998 61.8478C48.4678 62.0797 48.2359 62.3116 48.004 62.5435C48.004 62.5435 47.9267 62.5435 47.9267 62.4662C47.8493 62.4662 47.8493 62.3889 47.772 62.3889C47.6947 62.3116 47.5401 62.2343 47.4628 62.157C47.3082 62.0797 47.2309 62.0024 47.2309 61.9251ZM38.7268 66.7183L38.8041 66.641C39.036 66.4863 39.3453 66.2544 39.6545 66.0998H39.7318C39.8091 66.3317 40.1957 66.641 40.273 66.9502V67.0275C40.1957 67.0275 40.0411 67.1821 39.8864 67.2594C39.7318 67.3368 39.5772 67.4141 39.4226 67.5687C39.3453 67.5687 39.1906 67.5687 39.1906 67.4914C39.1133 67.4141 39.036 67.3368 39.036 67.3368C38.9587 67.2594 38.8814 67.0275 38.8041 66.9502C38.8041 66.7956 38.7268 66.7183 38.7268 66.7183ZM44.4477 64.7082C44.525 64.7082 44.525 64.7082 44.4477 64.7082C44.4477 64.6309 44.3704 64.6309 44.3704 64.7082C44.2158 64.7082 43.9839 65.0175 43.9065 65.0175C43.6746 65.0948 43.52 65.0948 43.3654 65.0948C42.9015 65.0948 42.4377 65.0175 41.9738 65.0175C41.5099 64.9401 40.9688 64.8628 40.5049 64.6309C39.8864 64.4763 39.4226 64.3217 38.9587 64.167C38.7268 64.0124 38.2629 63.7805 38.031 63.5486C38.031 63.4713 37.9537 63.4713 37.8764 63.3166C37.8764 63.2393 37.9537 63.0847 37.9537 63.0074L38.031 62.7755C38.031 62.7755 38.031 62.6982 38.1083 62.6209C38.1083 62.5435 38.031 62.5435 38.031 62.5435H37.9537C37.9537 62.5435 37.9537 62.5435 37.8764 62.5435C37.7991 62.8528 37.7218 63.0074 37.5671 63.162C37.5671 63.3166 37.4898 63.4713 37.4125 63.6259C37.4125 63.7032 37.3352 63.7805 37.3352 63.9351C37.3352 64.0124 37.2579 64.0897 37.2579 64.2444C37.3352 64.3217 37.3352 64.4763 37.3352 64.5536C37.4898 64.7082 37.6445 64.7855 37.7991 64.9401C38.1856 65.0948 38.7268 65.404 39.268 65.4813C39.7318 65.6359 40.3503 65.7906 40.8915 65.7906C41.3553 65.9452 41.9738 65.9452 42.3604 66.0225C42.8242 66.0225 43.2108 65.9452 43.6746 65.6359C43.9839 65.4813 44.2931 65.1721 44.4477 64.7082Z" fill="white"/>
</svg>
